<svg width="13" height="13" viewBox="0 0 13 13" fill="none" xmlns="http://www.w3.org/2000/svg">
    <path
        d="M6.5 0.5C3.188 0.5 0.5 3.188 0.5 6.5C0.5 9.812 3.188 12.5 6.5 12.5C9.812 12.5 12.5 9.812 12.5 6.5C12.5 3.188 9.812 0.5 6.5 0.5ZM6.5 11.3C3.854 11.3 1.7 9.146 1.7 6.5C1.7 3.854 3.854 1.7 6.5 1.7C9.146 1.7 11.3 3.854 11.3 6.5C11.3 9.146 9.146 11.3 6.5 11.3ZM8.828 4.274L5.3 7.802L4.172 6.674C3.938 6.44 3.56 6.44 3.326 6.674C3.092 6.908 3.092 7.286 3.326 7.52L4.88 9.074C5.114 9.308 5.492 9.308 5.726 9.074L9.68 5.12C9.914 4.886 9.914 4.508 9.68 4.274C9.446 4.04 9.062 4.04 8.828 4.274Z"
        fill="#22B07D" />
</svg>