<svg width="20" height="20" viewBox="0 0 20 20" fill="none" xmlns="http://www.w3.org/2000/svg">
<path d="M18.3333 9.63888C18.3333 14.0415 14.6018 17.6111 10 17.6111C9.45892 17.6119 8.91934 17.5618 8.38784 17.462C8.00528 17.3901 7.81399 17.3542 7.68045 17.3746C7.5469 17.395 7.35766 17.4956 6.97916 17.697C5.90846 18.2664 4.65996 18.4675 3.45926 18.2441C3.91562 17.6828 4.2273 17.0093 4.36482 16.2873C4.44816 15.8456 4.24167 15.4166 3.93241 15.1025C2.52778 13.6762 1.66667 11.7542 1.66667 9.63888C1.66667 5.23627 5.39815 1.66663 10 1.66663C14.6018 1.66663 18.3333 5.23627 18.3333 9.63888Z" stroke="#F8F9FA" stroke-width="1.25" stroke-linejoin="round"/>
<path d="M9.99625 10H10.0038M13.3258 10H13.3333M6.66667 10H6.67415" stroke="#F8F9FA" stroke-width="1.66667" stroke-linecap="round" stroke-linejoin="round"/>
</svg>
