<svg width="12" height="14" viewBox="0 0 12 14" fill="none" xmlns="http://www.w3.org/2000/svg">
    <path
        d="M3.68458 8.2469C3.50932 8.2469 3.36231 8.18752 3.24355 8.06876C3.1252 7.95041 3.06602 7.8036 3.06602 7.62835C3.06602 7.45309 3.1252 7.30608 3.24355 7.18731C3.36231 7.06896 3.50932 7.00979 3.68458 7.00979C3.85983 7.00979 4.00684 7.06896 4.12561 7.18731C4.24396 7.30608 4.30313 7.45309 4.30313 7.62835C4.30313 7.8036 4.24396 7.95041 4.12561 8.06876C4.00684 8.18752 3.85983 8.2469 3.68458 8.2469ZM6.1588 8.2469C5.98354 8.2469 5.83674 8.18752 5.71839 8.06876C5.59962 7.95041 5.54024 7.8036 5.54024 7.62835C5.54024 7.45309 5.59962 7.30608 5.71839 7.18731C5.83674 7.06896 5.98354 7.00979 6.1588 7.00979C6.33406 7.00979 6.48107 7.06896 6.59983 7.18731C6.71818 7.30608 6.77735 7.45309 6.77735 7.62835C6.77735 7.8036 6.71818 7.95041 6.59983 8.06876C6.48107 8.18752 6.33406 8.2469 6.1588 8.2469ZM8.63302 8.2469C8.45776 8.2469 8.31096 8.18752 8.19261 8.06876C8.07385 7.95041 8.01447 7.8036 8.01447 7.62835C8.01447 7.45309 8.07385 7.30608 8.19261 7.18731C8.31096 7.06896 8.45776 7.00979 8.63302 7.00979C8.80828 7.00979 8.95508 7.06896 9.07343 7.18731C9.1922 7.30608 9.25158 7.45309 9.25158 7.62835C9.25158 7.8036 9.1922 7.95041 9.07343 8.06876C8.95508 8.18752 8.80828 8.2469 8.63302 8.2469ZM1.82891 13.1954C1.4887 13.1954 1.19736 13.0743 0.954889 12.8323C0.712828 12.5898 0.591797 12.2984 0.591797 11.9582V3.29845C0.591797 2.95824 0.712828 2.66711 0.954889 2.42504C1.19736 2.18257 1.4887 2.06133 1.82891 2.06133H2.44746V0.824219H3.68458V2.06133H8.63302V0.824219H9.87013V2.06133H10.4887C10.8289 2.06133 11.1202 2.18257 11.3627 2.42504C11.6048 2.66711 11.7258 2.95824 11.7258 3.29845V11.9582C11.7258 12.2984 11.6048 12.5898 11.3627 12.8323C11.1202 13.0743 10.8289 13.1954 10.4887 13.1954H1.82891ZM1.82891 11.9582H10.4887V5.77267H1.82891V11.9582Z"
        fill="white" />
</svg>