<svg width="20" height="21" viewBox="0 0 20 21" fill="none" xmlns="http://www.w3.org/2000/svg">
<g clip-path="url(#clip0_17914_19282)">
<path d="M15 3.83268H14.1667V2.99935C14.1667 2.77834 14.0789 2.56637 13.9226 2.41009C13.7663 2.25381 13.5543 2.16602 13.3333 2.16602C13.1123 2.16602 12.9004 2.25381 12.7441 2.41009C12.5878 2.56637 12.5 2.77834 12.5 2.99935V3.83268H7.5V2.99935C7.5 2.77834 7.4122 2.56637 7.25592 2.41009C7.09964 2.25381 6.88768 2.16602 6.66667 2.16602C6.44565 2.16602 6.23369 2.25381 6.07741 2.41009C5.92113 2.56637 5.83333 2.77834 5.83333 2.99935V3.83268H5C4.33696 3.83268 3.70107 4.09607 3.23223 4.56492C2.76339 5.03376 2.5 5.66964 2.5 6.33268V16.3327C2.5 16.9957 2.76339 17.6316 3.23223 18.1005C3.70107 18.5693 4.33696 18.8327 5 18.8327H15C15.663 18.8327 16.2989 18.5693 16.7678 18.1005C17.2366 17.6316 17.5 16.9957 17.5 16.3327V6.33268C17.5 5.66964 17.2366 5.03376 16.7678 4.56492C16.2989 4.09607 15.663 3.83268 15 3.83268ZM6.66667 14.666C6.50185 14.666 6.34073 14.6171 6.20369 14.5256C6.06665 14.434 5.95984 14.3039 5.89677 14.1516C5.83369 13.9993 5.81719 13.8318 5.84935 13.6701C5.8815 13.5085 5.96087 13.36 6.07741 13.2434C6.19395 13.1269 6.34244 13.0475 6.50409 13.0154C6.66574 12.9832 6.8333 12.9997 6.98557 13.0628C7.13784 13.1259 7.26799 13.2327 7.35956 13.3697C7.45113 13.5067 7.5 13.6679 7.5 13.8327C7.5 14.0537 7.4122 14.2657 7.25592 14.4219C7.09964 14.5782 6.88768 14.666 6.66667 14.666ZM13.3333 14.666H10C9.77899 14.666 9.56702 14.5782 9.41074 14.4219C9.25446 14.2657 9.16667 14.0537 9.16667 13.8327C9.16667 13.6117 9.25446 13.3997 9.41074 13.2434C9.56702 13.0871 9.77899 12.9993 10 12.9993H13.3333C13.5543 12.9993 13.7663 13.0871 13.9226 13.2434C14.0789 13.3997 14.1667 13.6117 14.1667 13.8327C14.1667 14.0537 14.0789 14.2657 13.9226 14.4219C13.7663 14.5782 13.5543 14.666 13.3333 14.666ZM15.8333 9.66602H4.16667V6.33268C4.16667 6.11167 4.25446 5.89971 4.41074 5.74343C4.56702 5.58715 4.77899 5.49935 5 5.49935H5.83333V6.33268C5.83333 6.5537 5.92113 6.76566 6.07741 6.92194C6.23369 7.07822 6.44565 7.16602 6.66667 7.16602C6.88768 7.16602 7.09964 7.07822 7.25592 6.92194C7.4122 6.76566 7.5 6.5537 7.5 6.33268V5.49935H12.5V6.33268C12.5 6.5537 12.5878 6.76566 12.7441 6.92194C12.9004 7.07822 13.1123 7.16602 13.3333 7.16602C13.5543 7.16602 13.7663 7.07822 13.9226 6.92194C14.0789 6.76566 14.1667 6.5537 14.1667 6.33268V5.49935H15C15.221 5.49935 15.433 5.58715 15.5893 5.74343C15.7455 5.89971 15.8333 6.11167 15.8333 6.33268V9.66602Z" fill="#92929D"/>
</g>
<defs>
<clipPath id="clip0_17914_19282">
<rect width="20" height="20" fill="white" transform="translate(0 0.5)"/>
</clipPath>
</defs>
</svg>
