<svg width="32" height="32" viewBox="0 0 32 32" fill="none" xmlns="http://www.w3.org/2000/svg">
    <rect width="32" height="32" rx="16" fill="url(#paint0_linear_743_1815)" />
    <path
        d="M23.4677 11.6653C23.1483 11.3307 22.7072 11.133 22.2053 11.133H19.6806V11.1026C19.6806 10.7224 19.5285 10.3574 19.27 10.114C19.0114 9.85546 18.6616 9.70337 18.2814 9.70337H13.7186C13.3232 9.70337 12.9734 9.85546 12.7148 10.114C12.4563 10.3726 12.3042 10.7224 12.3042 11.1026V11.133H9.79468C9.29278 11.133 8.85171 11.3307 8.53232 11.6653C8.21293 11.9847 8 12.441 8 12.9277V20.5018C8 21.0037 8.19772 21.4448 8.53232 21.7642C8.85171 22.0836 9.30798 22.2965 9.79468 22.2965H22.2053C22.7072 22.2965 23.1483 22.0988 23.4677 21.7642C23.7871 21.4448 24 20.9885 24 20.5018V12.9277C24 12.4258 23.8023 11.9847 23.4677 11.6653ZM23.2091 20.5018H23.1939C23.1939 20.7756 23.0875 21.019 22.9049 21.2015C22.7224 21.384 22.4791 21.4904 22.2053 21.4904H9.79468C9.52091 21.4904 9.27757 21.384 9.09506 21.2015C8.91255 21.019 8.80608 20.7756 8.80608 20.5018V12.9277C8.80608 12.6539 8.91255 12.4106 9.09506 12.2281C9.27757 12.0456 9.52091 11.9391 9.79468 11.9391H12.73C12.9582 11.9391 13.1407 11.7566 13.1407 11.5285V11.0874C13.1407 10.9201 13.2015 10.768 13.308 10.6615C13.4144 10.5551 13.5665 10.4942 13.7338 10.4942H18.2814C18.4487 10.4942 18.6008 10.5551 18.7072 10.6615C18.8137 10.768 18.8745 10.9201 18.8745 11.0874V11.5285C18.8745 11.7566 19.057 11.9391 19.2852 11.9391H22.2205C22.4943 11.9391 22.7376 12.0456 22.9202 12.2281C23.1027 12.4106 23.2091 12.6539 23.2091 12.9277V20.5018Z"
        fill="#F2F2FA" />
    <path
        d="M16 12.9734C14.9658 12.9734 14.0228 13.3992 13.3536 14.0684C12.6692 14.7529 12.2585 15.6806 12.2585 16.7148C12.2585 17.7491 12.6844 18.692 13.3536 19.3612C14.038 20.0456 14.9658 20.4563 16 20.4563C17.0342 20.4563 17.9772 20.0304 18.6464 19.3612C19.3308 18.6768 19.7414 17.7491 19.7414 16.7148C19.7414 15.6806 19.3156 14.7376 18.6464 14.0684C17.9772 13.3992 17.0342 12.9734 16 12.9734ZM18.0684 18.7985C17.5361 19.3156 16.8061 19.6502 16 19.6502C15.1939 19.6502 14.4639 19.3156 13.9315 18.7985C13.3992 18.2662 13.0798 17.5361 13.0798 16.73C13.0798 15.924 13.4144 15.1939 13.9315 14.6616C14.4639 14.1293 15.1939 13.8099 16 13.8099C16.8061 13.8099 17.5361 14.1445 18.0684 14.6616C18.6007 15.1939 18.9201 15.924 18.9201 16.73C18.9354 17.5361 18.6007 18.2662 18.0684 18.7985Z"
        fill="#F2F2FA" />
    <path
        d="M21.4144 14.4486C21.826 14.4486 22.1597 14.115 22.1597 13.7034C22.1597 13.2918 21.826 12.9581 21.4144 12.9581C21.0028 12.9581 20.6692 13.2918 20.6692 13.7034C20.6692 14.115 21.0028 14.4486 21.4144 14.4486Z"
        fill="#F2F2FA" />
    <defs>
        <linearGradient id="paint0_linear_743_1815" x1="16" y1="0" x2="16" y2="32"
            gradientUnits="userSpaceOnUse">
            <stop stop-color="#1C197F" />
            <stop offset="1" stop-color="#4639E7" />
        </linearGradient>
    </defs>
</svg>