<svg width="32" height="32" viewBox="0 0 32 32" fill="none" xmlns="http://www.w3.org/2000/svg">
<path d="M15.9993 22.6641C13.7679 22.6641 11.8256 24.3507 10.8229 26.839C10.344 28.0274 11.0312 29.3307 11.9444 29.3307H20.0543C20.9675 29.3307 21.6547 28.0274 21.1757 26.839C20.1731 24.3507 18.2308 22.6641 15.9993 22.6641Z" stroke="#F8F9FA" stroke-width="2" stroke-linecap="round"/>
<path d="M24.6673 6.66406H26.2703C27.8715 6.66406 28.672 6.66406 29.0897 7.16721C29.5073 7.67036 29.3337 8.42557 28.9864 9.936L28.4653 12.2015C27.6819 15.6089 24.8152 18.1425 21.334 18.6641" stroke="#F8F9FA" stroke-width="2" stroke-linecap="round" stroke-linejoin="round"/>
<path d="M7.33268 6.66406H5.72974C4.12858 6.66406 3.328 6.66406 2.91034 7.16721C2.49267 7.67036 2.66634 8.42557 3.01368 9.936L3.53466 12.2015C4.3182 15.6089 7.18484 18.1425 10.666 18.6641" stroke="#F8F9FA" stroke-width="2" stroke-linecap="round" stroke-linejoin="round"/>
<path d="M16.0007 22.6641C20.0284 22.6641 23.4207 16.4479 24.4403 7.98525C24.7223 5.64484 24.8633 4.47464 24.1164 3.56934C23.3696 2.66406 22.1637 2.66406 19.7519 2.66406H12.2494C9.83765 2.66406 8.63176 2.66406 7.88488 3.56934C7.138 4.47464 7.27899 5.64484 7.56099 7.98525C8.58065 16.4479 11.973 22.6641 16.0007 22.6641Z" stroke="#F8F9FA" stroke-width="2" stroke-linecap="round"/>
</svg>
