<svg width="18" height="16" viewBox="0 0 18 16" fill="none" xmlns="http://www.w3.org/2000/svg">
    <path fill-rule="evenodd" clip-rule="evenodd"
        d="M17.5336 0.303953C17.6636 0.414902 17.7713 0.551224 17.8503 0.705133C17.9293 0.859042 17.9782 1.02752 17.9942 1.20095C18.0102 1.37439 17.993 1.54937 17.9434 1.71591C17.8939 1.88246 17.8131 2.0373 17.7057 2.17159L7.37935 15.0779L7.3755 15.0806C7.14089 15.3723 6.84617 15.6062 6.51286 15.7652C6.17956 15.9242 5.81607 16.0044 5.44894 15.9998C5.07629 15.9954 4.70946 15.9039 4.376 15.732C4.04254 15.5602 3.75113 15.3125 3.52367 15.0076L3.52238 15.005L0.288338 10.7126C0.180352 10.5756 0.0999472 10.4177 0.0518425 10.2482C0.0037379 10.0787 -0.0110977 9.90096 0.00820624 9.72544C0.0275102 9.54993 0.0805649 9.38016 0.164257 9.2261C0.247949 9.07205 0.360592 8.93681 0.495577 8.82833C0.630561 8.71984 0.785167 8.64029 0.950322 8.59435C1.11548 8.5484 1.28785 8.53699 1.45734 8.56078C1.62682 8.58457 1.79 8.64308 1.93729 8.73288C2.08458 8.82268 2.21302 8.94196 2.31507 9.08371L5.47976 13.2846L15.7239 0.481697C15.8313 0.34738 15.9633 0.236234 16.1124 0.154607C16.2614 0.0729807 16.4245 0.0224722 16.5925 0.00596668C16.7604 -0.0105389 16.9298 0.00728169 17.0911 0.0584106C17.2523 0.10954 17.4023 0.192975 17.5323 0.303953H17.5336Z"
        fill="#F8F9FA" />
</svg>