<svg width="19" height="19" viewBox="0 0 19 19" fill="none" xmlns="http://www.w3.org/2000/svg">
    <rect x="0.5" y="0.5" width="18" height="18" rx="9" stroke="#DE2424" />
    <path
        d="M13.5099 5.49535C13.2616 5.24702 12.8604 5.24702 12.6121 5.49535L9.49846 8.60261L6.38482 5.48898C6.1365 5.24065 5.73535 5.24065 5.48703 5.48898C5.2387 5.73731 5.2387 6.13845 5.48703 6.38678L8.60066 9.50041L5.48703 12.614C5.2387 12.8624 5.2387 13.2635 5.48703 13.5118C5.73535 13.7602 6.1365 13.7602 6.38482 13.5118L9.49846 10.3982L12.6121 13.5118C12.8604 13.7602 13.2616 13.7602 13.5099 13.5118C13.7582 13.2635 13.7582 12.8624 13.5099 12.614L10.3963 9.50041L13.5099 6.38678C13.7518 6.14482 13.7518 5.73731 13.5099 5.49535Z"
        fill="#DE2424" />
</svg>