<svg width="18" height="18" viewBox="0 0 18 18" fill="none" xmlns="http://www.w3.org/2000/svg">
    <path
        d="M12.5415 2.74501C12.7275 2.55897 12.9484 2.41139 13.1915 2.31071C13.4345 2.21002 13.6951 2.1582 13.9582 2.1582C14.2213 2.1582 14.4818 2.21002 14.7249 2.31071C14.9679 2.41139 15.1888 2.55897 15.3748 2.74501C15.5609 2.93104 15.7085 3.15191 15.8091 3.39498C15.9098 3.63805 15.9616 3.89857 15.9616 4.16167C15.9616 4.42477 15.9098 4.68529 15.8091 4.92837C15.7085 5.17144 15.5609 5.3923 15.3748 5.57834L5.81234 15.1408L1.9165 16.2033L2.979 12.3075L12.5415 2.74501Z"
        stroke="white" stroke-width="1.5" stroke-linecap="round" stroke-linejoin="round" />
</svg>