<svg width="20" height="20" viewBox="0 0 20 20" fill="none" xmlns="http://www.w3.org/2000/svg">
<path d="M5.83333 7.5V12.5" stroke="#4236DD" stroke-linecap="round" stroke-linejoin="round"/>
<path d="M5.83333 7.5H5C4.22343 7.5 3.83515 7.49999 3.52886 7.62686C3.12048 7.79602 2.79603 8.12048 2.62687 8.52883C2.5 8.83516 2.5 9.22341 2.5 10C2.5 10.7766 2.5 11.1648 2.62687 11.4712C2.79603 11.8795 3.12048 12.204 3.52886 12.3732C3.83515 12.5 4.22343 12.5 5 12.5H5.83333L12.5663 14.5199C13.3576 14.7572 13.7532 14.876 14.1047 15.0845L14.1216 15.0946C14.4719 15.3052 14.7639 15.5972 15.3481 16.1814L15.4882 16.3215C15.5876 16.4209 15.6372 16.4706 15.6925 16.5102C15.7967 16.5851 15.9169 16.6349 16.0436 16.6557C16.1106 16.6667 16.1809 16.6667 16.3215 16.6667C16.6427 16.6667 16.8034 16.6667 16.933 16.6229C17.1796 16.5397 17.3731 16.3462 17.4563 16.0997C17.5 15.9701 17.5 15.8094 17.5 15.4882V4.51184C17.5 4.19054 17.5 4.0299 17.4563 3.90032C17.3731 3.65376 17.1796 3.4602 16.933 3.37704C16.8034 3.33333 16.6427 3.33333 16.3215 3.33333C16.1809 3.33333 16.1106 3.33333 16.0436 3.34433C15.9169 3.36512 15.7967 3.41489 15.6925 3.48975C15.6372 3.52938 15.5876 3.57909 15.4882 3.6785L15.3481 3.81858C14.7639 4.40271 14.4719 4.69478 14.1216 4.9054L14.1047 4.91546C13.7532 5.12403 13.3576 5.24271 12.5663 5.48009L5.83333 7.5Z" stroke="#4236DD" stroke-linecap="round" stroke-linejoin="round"/>
<path d="M6.66667 12.9167V15.0382C6.66667 15.9376 7.39576 16.6667 8.29514 16.6667C8.83959 16.6667 9.34809 16.3946 9.65009 15.9415L10.8333 14.1667" stroke="#4236DD" stroke-linecap="round" stroke-linejoin="round"/>
<rect x="2.5" y="7.5" width="3" height="5" rx="1" fill="#4236DD"/>
</svg>
