<svg width="18" height="21" viewBox="0 0 18 21" fill="none" xmlns="http://www.w3.org/2000/svg">
<path d="M12.6747 11.3333L12.6747 11.8333L13.1747 11.8333L16.5893 11.8333C17.0309 11.8333 17.2557 12.3639 16.9485 12.6812L10.4268 19.4158C10.0464 19.7949 9.54978 20 9.00804 20C8.47366 20 7.96901 19.7942 7.58913 19.4156L1.05464 12.6815C0.746949 12.3644 0.971633 11.8333 1.41347 11.8333L4.84137 11.8333L5.34137 11.8333L5.34137 11.3333L5.34137 2.5C5.34137 1.67157 6.01294 0.999999 6.84137 0.999999L11.1747 0.999999C12.0031 0.999999 12.6747 1.67157 12.6747 2.5L12.6747 11.3333Z" stroke="#F8F9FA"/>
</svg>
