<svg width="22" height="23" viewBox="0 0 22 23" fill="none" xmlns="http://www.w3.org/2000/svg">
<path d="M16.328 2.61719V4.39353M5.66992 2.61719V4.39353" stroke="#F8F9FA" stroke-width="1.33226" stroke-linecap="round" stroke-linejoin="round"/>
<path d="M10.996 12.3906H11.004M10.996 15.9433H11.004M14.5447 12.3906H14.5527M7.44727 12.3906H7.45523M7.44727 15.9433H7.45523" stroke="#F8F9FA" stroke-width="1.77635" stroke-linecap="round" stroke-linejoin="round"/>
<path d="M3.45117 7.94531H18.5501" stroke="#F8F9FA" stroke-width="1.33226" stroke-linecap="round" stroke-linejoin="round"/>
<path d="M2.5625 11.7174C2.5625 7.84737 2.5625 5.91235 3.6746 4.71008C4.7867 3.50781 6.57659 3.50781 10.1564 3.50781H11.8439C15.4237 3.50781 17.2136 3.50781 18.3257 4.71008C19.4378 5.91235 19.4378 7.84737 19.4378 11.7174V12.1735C19.4378 16.0436 19.4378 17.9786 18.3257 19.1809C17.2136 20.3831 15.4237 20.3831 11.8439 20.3831H10.1564C6.57659 20.3831 4.7867 20.3831 3.6746 19.1809C2.5625 17.9786 2.5625 16.0436 2.5625 12.1735V11.7174Z" stroke="#F8F9FA" stroke-width="1.33226" stroke-linecap="round" stroke-linejoin="round"/>
<path d="M3.00586 7.94531H18.993" stroke="#F8F9FA" stroke-width="1.33226" stroke-linecap="round" stroke-linejoin="round"/>
</svg>
