<svg width="24" height="16" viewBox="0 0 24 16" fill="none" xmlns="http://www.w3.org/2000/svg">
<path d="M20.79 5.24435L18.3878 3.12045C16.6573 1.59014 15.9788 0.76693 15.0416 1.05795C13.873 1.42083 14.2578 3.71053 14.2578 4.48354C12.4408 4.48354 10.5519 4.34125 8.76091 4.6377C2.84873 5.61639 1 9.89924 1 14.5135C2.67333 13.4691 4.34502 12.3044 6.35618 11.8205C8.86665 11.2162 11.6704 11.5045 14.2578 11.5045C14.2578 12.2776 13.873 14.5673 15.0416 14.9301C16.1035 15.2598 16.6573 14.3979 18.3878 12.8677L20.79 10.7437C22.2633 9.44102 23 8.7896 23 7.99403C23 7.1985 22.2633 6.54712 20.79 5.24435Z" stroke="#F8F9FA" stroke-width="1.25" stroke-linecap="round" stroke-linejoin="round"/>
</svg>
