<svg width="23" height="22" viewBox="0 0 23 22" fill="none" xmlns="http://www.w3.org/2000/svg">
    <path
        d="M21.7386 0.735412C21.5883 0.584769 21.4097 0.465254 21.2131 0.383709C21.0165 0.302164 20.8058 0.26019 20.593 0.26019C20.3801 0.26019 20.1694 0.302164 19.9728 0.383709C19.7762 0.465254 19.5977 0.584769 19.4473 0.735412L11.5011 8.66541L3.55485 0.719162C3.4044 0.568716 3.2258 0.449376 3.02923 0.367956C2.83266 0.286535 2.62198 0.244629 2.40922 0.244629C2.19646 0.244629 1.98578 0.286535 1.78921 0.367956C1.59265 0.449376 1.41404 0.568716 1.2636 0.719162C1.11315 0.869608 0.99381 1.04821 0.912389 1.24478C0.830969 1.44135 0.789062 1.65203 0.789062 1.86479C0.789063 2.07755 0.830969 2.28823 0.912389 2.4848C0.99381 2.68136 1.11315 2.85997 1.2636 3.01041L9.20985 10.9567L1.2636 18.9029C1.11315 19.0534 0.99381 19.232 0.912389 19.4285C0.830969 19.6251 0.789062 19.8358 0.789062 20.0485C0.789062 20.2613 0.830969 20.472 0.912389 20.6685C0.99381 20.8651 1.11315 21.0437 1.2636 21.1942C1.41404 21.3446 1.59265 21.4639 1.78921 21.5454C1.98578 21.6268 2.19646 21.6687 2.40922 21.6687C2.62198 21.6687 2.83266 21.6268 3.02923 21.5454C3.2258 21.4639 3.4044 21.3446 3.55485 21.1942L11.5011 13.2479L19.4473 21.1942C19.5978 21.3446 19.7764 21.4639 19.973 21.5454C20.1695 21.6268 20.3802 21.6687 20.593 21.6687C20.8057 21.6687 21.0164 21.6268 21.213 21.5454C21.4095 21.4639 21.5881 21.3446 21.7386 21.1942C21.889 21.0437 22.0084 20.8651 22.0898 20.6685C22.1712 20.472 22.2131 20.2613 22.2131 20.0485C22.2131 19.8358 22.1712 19.6251 22.0898 19.4285C22.0084 19.232 21.889 19.0534 21.7386 18.9029L13.7923 10.9567L21.7386 3.01041C22.3561 2.39291 22.3561 1.35291 21.7386 0.735412Z"
        fill="#FAFAFA" />
</svg>