<svg width="32" height="32" viewBox="0 0 32 32" fill="none" xmlns="http://www.w3.org/2000/svg">
<path d="M16.0295 0H15.9567C7.14404 0 0 7.14614 0 15.9614V16.0342C0 24.8494 7.14404 31.9956 15.9567 31.9956H16.0295C24.8421 31.9956 31.9861 24.8494 31.9861 16.0342V15.9614C31.9861 7.14614 24.8421 0 16.0295 0Z" fill="#383D38"/>
<path d="M23.7261 11.5721V14.5931C23.1983 14.5415 22.5125 14.4216 21.7538 14.1436C20.7632 13.7804 20.0258 13.2838 19.5428 12.8993V19.0052L19.5305 18.9861C19.5383 19.1072 19.5428 19.2305 19.5428 19.3549C19.5428 22.3871 17.0763 24.8555 14.0439 24.8555C11.0114 24.8555 8.54492 22.3871 8.54492 19.3549C8.54492 16.3227 11.0114 13.8532 14.0439 13.8532C14.3408 13.8532 14.6322 13.8768 14.9168 13.9227V16.9C14.6434 16.8025 14.3498 16.7498 14.0439 16.7498C12.6083 16.7498 11.4395 17.9178 11.4395 19.3549C11.4395 20.792 12.6083 21.96 14.0439 21.96C15.4794 21.96 16.6482 20.7909 16.6482 19.3549C16.6482 19.3011 16.6471 19.2473 16.6437 19.1935V7.32812H19.6616C19.6728 7.5837 19.6829 7.84153 19.6941 8.09711C19.7142 8.60042 19.8935 9.08355 20.2062 9.47925C20.5726 9.94445 21.1139 10.4847 21.8737 10.9163C22.5853 11.3187 23.2532 11.4925 23.7261 11.5743V11.5721Z" fill="white"/>
</svg>
