<svg width="24" height="24" viewBox="0 0 24 24" fill="none" xmlns="http://www.w3.org/2000/svg">
<path d="M12.0001 3.84863C11.3567 3.84863 10.8788 3.93377 10.8319 3.94295C8.3338 4.4321 6.66718 6.33701 6.66718 9.17255C6.66718 15.8841 4.00061 15.6619 4.00061 16.7278C4.00061 18.5055 8.00046 18.95 12.0003 18.95C16.0002 18.95 20 18.5055 20 16.7278C20 15.6619 17.3334 15.8841 17.3334 9.17255C17.3334 6.31819 15.6843 4.37569 13.1161 3.94295C13.0852 3.93773 12.6435 3.84863 12.0001 3.84863Z" stroke="#F2F2FA" stroke-width="2" stroke-miterlimit="10" stroke-linecap="round"/>
<path d="M10.0005 18.905C9.86686 19.1724 9.77832 19.4831 9.77832 19.839C9.77832 21.0838 10.7557 22.0612 12.0005 22.0612C13.2452 22.0612 14.2226 21.0838 14.2226 19.839C14.2226 19.4831 14.1341 19.1724 14.0004 18.905" stroke="#F2F2FA" stroke-width="2" stroke-miterlimit="10"/>
</svg>
